<?xml version="1.0" encoding="utf-8"?>
<!-- Generator: Adobe Illustrator 23.0.1, SVG Export Plug-In . SVG Version: 6.00 Build 0)  -->
<svg version="1.1" id="Layer_1" xmlns="http://www.w3.org/2000/svg" xmlns:xlink="http://www.w3.org/1999/xlink" x="0px" y="0px"
	 viewBox="0 0 50 50" style="enable-background:new 0 0 50 50;" xml:space="preserve">
<style type="text/css">
	.st0{fill:#85B916;}
	.st1{fill:#5C810F;}
	.st2{fill:#FFFEF9;}
</style>
<g>
	<g>
		<path class="st0" d="M37.5,0h-26C5.1,0,0,5.1,0,11.5v27C0,44.9,5.1,50,11.5,50h27C44.9,50,50,44.9,50,38.5V13.3H37.5V0z"/>
		<path class="st1" d="M38.5,0h-1v13.3H50v-1.8C50,5.1,44.9,0,38.5,0z"/>
	</g>
	<g>
		<g>
			<path class="st2" d="M7.1,24.4c0-1.5,0.6-2.6,1.9-3.1c0.6-0.2,1.2-0.3,1.8-0.3c1.8,0,3,0.6,3.5,1.8c0.2,0.5,0.3,1.1,0.3,2v1.6
				H9.8v0.3c0,0.6,0.2,0.9,0.5,1c0.3,0.1,0.6,0.1,1,0.1h0.2c1,0,1.9-0.1,2.9-0.3h0v2.2c0,0-0.5,0.1-1.4,0.3c-0.6,0.1-1.2,0.1-2,0.1
				c-1.9,0-3.1-0.6-3.7-1.9c-0.2-0.5-0.3-1-0.3-1.6V24.4z M12,24.7v-0.1c0-0.6-0.1-0.9-0.4-1c-0.2-0.1-0.4-0.2-0.7-0.2
				c-0.4,0-0.6,0.1-0.8,0.2c-0.2,0.2-0.3,0.4-0.3,0.7v0.4H12z"/>
			<path class="st2" d="M15.9,17.7c0,0,0.1,0,0.2,0c0.1,0,0.2,0,0.3,0c0.1,0,0.2,0,0.3,0c0.1,0,0.2,0,0.4,0c0.2,0,0.3,0,0.4,0
				c1.9,0,3.1,0,3.8,0c0.9,0,1.6,0.1,2.2,0.4c0.5,0.3,1,0.7,1.3,1.2c0.3,0.7,0.5,1.5,0.5,2.5v0.6c0,1.1-0.1,1.8-0.3,2.2
				c-0.3,0.7-0.7,1.2-1.3,1.5s-1.4,0.5-2.4,0.5c0,0-0.1,0-0.2,0c-0.3,0-0.6,0-1.1-0.1c-0.6-0.1-0.9-0.1-0.9-0.1V30h-3.1V17.7z
				 M20.7,24.3L20.7,24.3c0.5,0,0.7,0,0.9-0.1c0.2-0.1,0.3-0.1,0.4-0.3c0.1-0.1,0.2-0.3,0.3-0.5c0.1-0.2,0.1-0.4,0.1-0.8v-1.1
				c0-0.6-0.1-1.1-0.3-1.3c-0.1-0.1-0.3-0.2-0.5-0.3c-0.2-0.1-0.4-0.1-0.5-0.1c-0.1,0-0.3,0-0.6,0c-0.4,0-0.9,0-1.5,0.1v4.2
				C19.7,24.2,20.3,24.3,20.7,24.3z"/>
			<path class="st2" d="M26.1,21.3h2.7v5.5c0,0.6,0.3,0.9,0.8,1c0.1,0,0.3,0,0.4,0c0.1,0,0.1,0,0.1,0c0.4,0,0.8-0.2,1.2-0.4v-6.2
				h2.7V30h-2.2l-0.1-0.1c-0.1-0.2-0.1-0.3-0.1-0.4c0,0-0.1,0-0.3,0.1c-0.4,0.2-0.8,0.3-1.2,0.4c-0.3,0.1-0.6,0.1-0.9,0.1
				c-0.1,0-0.1,0-0.3,0c-0.6,0-1-0.1-1.4-0.3s-0.7-0.5-1-1c-0.1-0.2-0.2-0.6-0.3-0.9s-0.1-0.9-0.1-1.6V21.3z"/>
			<path class="st2" d="M35.2,17.7l2.7-0.5v4.2c0.7-0.2,1.3-0.3,1.9-0.3c1.5,0,2.5,0.4,2.9,1.2c0.2,0.3,0.3,1.2,0.3,2.5v0.9
				c0,1.4-0.1,2.3-0.3,2.6c-0.1,0.2-0.3,0.5-0.6,0.8c-0.7,0.6-1.8,0.9-3.3,0.9c-1.1,0-2.3-0.1-3.6-0.4V17.7z M38.7,27.9h0.2
				c0.8,0,1.2-0.3,1.4-0.7c0-0.1,0.1-0.3,0.1-0.5v-2.2c0-0.5-0.3-0.9-0.8-1h-0.4c-0.4,0-0.9,0.1-1.3,0.4v4.1L38.7,27.9z"/>
		</g>
	</g>
</g>
</svg>
