<?xml version="1.0" encoding="utf-8"?>
<!-- Generator: Adobe Illustrator 23.0.1, SVG Export Plug-In . SVG Version: 6.00 Build 0)  -->
<svg version="1.1" id="Layer_1" xmlns="http://www.w3.org/2000/svg" xmlns:xlink="http://www.w3.org/1999/xlink" x="0px" y="0px"
	 viewBox="0 0 50 50" style="enable-background:new 0 0 50 50;" xml:space="preserve">
<style type="text/css">
	.st0{fill:#A0B8F9;}
	.st1{fill:#6E8BCC;}
	.st2{fill:#FFFFFF;}
</style>
<g>
	<g>
		<g>
			<path class="st0" d="M37.5,0h-26C5.1,0,0,5.1,0,11.5v27C0,44.9,5.1,50,11.5,50h27C44.9,50,50,44.9,50,38.5V13.3H37.5V0z"/>
			<path class="st1" d="M38.5,0h-1v13.3H50v-1.8C50,5.1,44.9,0,38.5,0z"/>
		</g>
	</g>
	<g>
		<path class="st2" d="M33.5,37.2H13.6c-0.6,0-1.1-0.5-1.1-1.1V36c0-0.6,0.5-1.1,1.1-1.1h19.9c0.6,0,1.1,0.5,1.1,1.1v0.1
			C34.6,36.7,34.1,37.2,33.5,37.2z"/>
		<path class="st2" d="M26.1,30.9H13.6c-0.6,0-1.1-0.5-1.1-1.1v-0.1c0-0.6,0.5-1.1,1.1-1.1h12.5c0.6,0,1.1,0.5,1.1,1.1v0.1
			C27.3,30.4,26.8,30.9,26.1,30.9z"/>
		<path class="st2" d="M33.5,24.6H13.6c-0.6,0-1.1-0.5-1.1-1.1v-0.1c0-0.6,0.5-1.1,1.1-1.1h19.9c0.6,0,1.1,0.5,1.1,1.1v0.1
			C34.6,24.1,34.1,24.6,33.5,24.6z"/>
		<path class="st2" d="M33.5,18.3H13.6c-0.6,0-1.1-0.5-1.1-1.1v-0.1c0-0.6,0.5-1.1,1.1-1.1h19.9c0.6,0,1.1,0.5,1.1,1.1v0.1
			C34.6,17.8,34.1,18.3,33.5,18.3z"/>
	</g>
</g>
</svg>
