<?xml version="1.0" encoding="utf-8"?>
<!-- Generator: Adobe Illustrator 23.0.1, SVG Export Plug-In . SVG Version: 6.00 Build 0)  -->
<svg version="1.1" id="Layer_1" xmlns="http://www.w3.org/2000/svg" xmlns:xlink="http://www.w3.org/1999/xlink" x="0px" y="0px"
	 viewBox="0 0 50 50" style="enable-background:new 0 0 50 50;" xml:space="preserve">
<style type="text/css">
	.st0{fill-rule:evenodd;clip-rule:evenodd;fill:#CB0606;}
	.st1{fill-rule:evenodd;clip-rule:evenodd;fill:#FB8D8D;}
	.st2{fill:#FFFEF9;}
</style>
<g>
	<path class="st0" d="M46.4,13.2v32.9c0,2.2-1.8,3.9-4,3.9H7.5c-2.2,0-4-1.8-4-3.9V3.9c0-2.2,1.8-3.9,4-3.9h25.7L46.4,13.2z"/>
	<path class="st1" d="M46.4,12.4v1.6H35.6c-2.2,0-3.3-1.8-3.3-4V0H34L46.4,12.4z"/>
	<g>
		<g>
			<path class="st2" d="M11.2,19.8c0,0,0.1,0,0.2,0c0.1,0,0.2,0,0.3,0c0.1,0,0.2,0,0.3,0c0.1,0,0.2,0,0.4,0c0.2,0,0.3,0,0.4,0
				c1.9,0,3.1,0,3.8,0c0.9,0,1.6,0.1,2.2,0.4c0.5,0.3,1,0.7,1.3,1.2c0.3,0.7,0.5,1.5,0.5,2.5v0.6c0,1.1-0.1,1.8-0.3,2.2
				c-0.3,0.7-0.7,1.2-1.3,1.5c-0.6,0.3-1.4,0.5-2.4,0.5c0,0-0.1,0-0.2,0c-0.3,0-0.6,0-1.1-0.1c-0.6-0.1-0.9-0.1-0.9-0.1V32h-3.1
				V19.8z M16,26.3L16,26.3c0.5,0,0.7,0,0.9-0.1c0.2-0.1,0.3-0.1,0.4-0.3c0.1-0.1,0.2-0.3,0.3-0.5c0.1-0.2,0.1-0.4,0.1-0.8v-1.1
				c0-0.6-0.1-1.1-0.3-1.3c-0.1-0.1-0.3-0.2-0.5-0.3C16.6,22,16.5,22,16.3,22c-0.1,0-0.3,0-0.6,0c-0.4,0-0.9,0-1.5,0.1v4.2
				C15,26.3,15.6,26.3,16,26.3z"/>
			<path class="st2" d="M21.5,19.8c0.8,0,1.5,0,2.1,0c0.2,0,0.8,0,1.6,0c0.2,0,0.3,0,0.5,0c0.2,0,0.3,0,0.3,0c0.1,0,0.1,0,0.1,0
				c2.4,0,4,0.7,4.8,2.2c0.5,0.9,0.7,2,0.7,3.5v0.8c0,1.4-0.1,2.4-0.4,3c-0.7,1.8-2.4,2.8-5.1,2.8c-1.2,0-2.3,0-3.3,0
				c-0.1,0-0.2,0-0.3,0c-0.2,0-0.3,0-0.4,0c-0.1,0-0.2,0-0.3,0c-0.1,0-0.2,0-0.2,0c-0.1,0-0.1,0-0.2,0V19.8z M25.6,29.7h0.3
				c0.6,0,1,0,1.4-0.1c0.3-0.1,0.6-0.3,0.8-0.5c0.2-0.2,0.3-0.5,0.4-0.8c0.1-0.3,0.1-0.7,0.1-1.2v-1.9c0-1.2-0.2-2-0.6-2.4
				c-0.3-0.4-1.1-0.6-2.2-0.6c-0.4,0-0.8,0-1.3,0.1v7.4C24.8,29.7,25.2,29.7,25.6,29.7z"/>
			<path class="st2" d="M32.8,19.8h7.1v2.4h-4v2.6h3.2L38.9,27h-3V32h-3.1V19.8z"/>
		</g>
	</g>
</g>
</svg>
