<?xml version="1.0" encoding="utf-8"?>
<!-- Generator: Adobe Illustrator 23.0.1, SVG Export Plug-In . SVG Version: 6.00 Build 0)  -->
<svg version="1.1" id="Layer_1" xmlns="http://www.w3.org/2000/svg" xmlns:xlink="http://www.w3.org/1999/xlink" x="0px" y="0px"
	 viewBox="0 0 256 256" style="enable-background:new 0 0 256 256;" xml:space="preserve">
<style type="text/css">
	.st0{fill:#EFEFEF;}
	.st1{fill:#E2E2E2;}
	.st2{enable-background:new    ;}
	.st3{fill:#1D305E;}
	.st4{fill:url(#SVGID_1_);}
	.st5{fill:url(#SVGID_2_);}
	.st6{fill:url(#SVGID_3_);}
	.st7{fill:url(#SVGID_4_);}
	.st8{fill:url(#SVGID_5_);}
</style>
<g>
	<g>
		<g>
			<g>
				<path class="st0" d="M192.4,0.5H59.1C26.6,0.5,0.2,26.9,0.2,59.4v138.2c0,32.5,26.4,58.9,58.9,58.9h138.2
					c32.5,0,58.9-26.4,58.9-58.9V68.4h-63.8V0.5z"/>
				<path class="st1" d="M197.3,0.5h-5v67.9h63.8v-9C256.2,26.9,229.8,0.5,197.3,0.5z"/>
			</g>
		</g>
	</g>
	<g>
		<g class="st2">
			<path class="st3" d="M78.6,83.8c2.9,0,5.6,0.5,8.2,1.4c3.5,1.3,5.3,3.1,5.3,5.5c0,1.3-0.4,2.5-1.3,3.5c-0.8,1-1.9,1.5-3.3,1.5
				c-0.9,0-1.9-0.2-3.1-0.6c-2.8-1-4.8-1.4-6.1-1.4c-1.6,0-2.9,0.4-4,1.1c-1.1,0.8-1.7,1.8-1.7,3.3c0,1.8,2,3.3,5.9,4.5
				c5.6,1.7,9.3,3.2,11.1,4.3c4,2.6,6,6.5,6,11.6c0,4.7-1.7,8.6-5.1,11.5c-3.4,3-7.6,4.4-12.4,4.4c-3.9,0-7.3-0.5-10.2-1.4
				c-4.3-1.3-6.4-3.4-6.4-6.3c0-1.4,0.4-2.6,1.3-3.5c0.8-0.9,1.9-1.4,3.3-1.4c1,0,2.8,0.5,5.3,1.4c2.6,0.9,4.6,1.4,6.2,1.4
				c2.2,0,3.9-0.6,5.1-1.7c1.2-1.1,1.8-2.5,1.8-4.3c0-2.1-2-3.8-5.9-5c-6.4-2-10.1-3.3-11.1-3.9c-4-2.3-6-5.7-6-10.3
				c0-4.7,1.7-8.4,5-11.3C69.8,85.2,73.9,83.8,78.6,83.8z"/>
			<path class="st3" d="M101,120v-17.9c0-1.7,0.5-3,1.4-4c0.9-1,2.1-1.5,3.6-1.5c1.5,0,2.7,0.5,3.6,1.5c0.9,1,1.4,2.3,1.4,4v17.6
				c0,2,0.6,3.5,1.9,4.7c1.3,1.2,2.7,1.8,4.4,1.8c1.8,0,3.3-0.6,4.6-1.8c1.3-1.2,1.9-2.7,1.9-4.7v-17.6c0-1.7,0.5-3,1.4-4
				c0.9-1,2.1-1.5,3.6-1.5c1.5,0,2.7,0.5,3.6,1.5c0.9,1,1.4,2.3,1.4,4V120c0,4.5-1.4,8-4.3,10.6c-2.9,2.6-6.9,3.9-12.1,3.9
				c-5.2,0-9.2-1.3-12-3.9C102.4,127.9,101,124.4,101,120z"/>
			<path class="st3" d="M139.7,128.5v-27c0-1.6,0.5-2.8,1.5-3.6c1-0.9,2.2-1.3,3.6-1.3c1.5,0,2.6,0.3,3.5,0.9
				c0.9,0.6,1.3,1.7,1.3,3.2c1.9-2.8,4.3-4.1,7-4.1c1.3,0,2.5,0.4,3.4,1.3c0.9,0.9,1.4,2.2,1.4,3.9c0,1.6-0.9,2.7-2.7,3.5
				c-1.1,0.5-2.2,0.9-3.2,1.3c-2.1,1-3.4,1.7-4.1,2.3c-1.2,1.1-1.9,2.5-1.9,4.3v15.3c0,1.7-0.5,3-1.4,4c-0.9,1-2.1,1.5-3.6,1.5
				c-1.5,0-2.7-0.5-3.6-1.5C140.2,131.5,139.7,130.2,139.7,128.5z"/>
			<path class="st3" d="M193,118.6h-21.1c0.3,2.3,1.3,4.1,3.1,5.3c1.7,1.2,3.8,1.9,6.3,1.9c1.6,0,3.3-0.4,5-1.2
				c3.9-1.8,5.9-2.8,6.1-2.8c1.1,0,2.1,0.4,2.9,1.3s1.2,1.9,1.2,3c0,2.1-1.8,4-5.3,5.7c-3.5,1.8-7.2,2.7-11,2.7
				c-5.5,0-10-1.8-13.4-5.4c-3.4-3.6-5.2-8.2-5.2-13.8c0-5.2,1.7-9.7,5-13.5c3.3-3.8,7.6-5.7,12.7-5.7c5.1,0,9.4,2,12.9,5.9
				c3.3,3.7,5,7.7,5,12.1C197.4,117.1,195.9,118.6,193,118.6z M171.7,112h15.8c-0.3-2.3-1.1-4.1-2.5-5.5c-1.4-1.4-3.2-2.1-5.5-2.1
				c-2.2,0-3.9,0.7-5.3,2.1C172.8,107.9,171.9,109.7,171.7,112z"/>
		</g>
		<g class="st2">
			<linearGradient id="SVGID_1_" gradientUnits="userSpaceOnUse" x1="57.4234" y1="120.1417" x2="57.4234" y2="172.4556">
				<stop  offset="0" style="stop-color:#E33D9A"/>
				<stop  offset="1" style="stop-color:#4500D4"/>
			</linearGradient>
			<path class="st4" d="M38.4,166.9v-41.3c0-1.8,0.5-3.1,1.5-4c1-0.9,2.4-1.4,4.2-1.4h14.1c3.9,0,7.2,1.2,9.8,3.6
				c2.6,2.4,4,5.5,4,9.3c0,5-2.3,8.6-6.8,10.7c3.1,0.5,5.7,2,7.9,4.4c2.2,2.4,3.3,5.1,3.3,8.2c0,5.1-1.5,9-4.6,11.8
				s-7.2,4.2-12.4,4.2H44.3c-1.7,0-3.1-0.5-4.2-1.5S38.4,168.6,38.4,166.9z M49.4,129.8v11h5.7c1.8,0,3.2-0.5,4.3-1.5
				c1.1-1,1.6-2.5,1.6-4.3c0-1.6-0.6-2.9-1.7-3.8c-1.1-0.9-2.5-1.4-4.2-1.4H49.4z M49.4,150.6v12.2h8.7c2,0,3.7-0.6,5-1.7
				c1.3-1.2,1.9-2.7,1.9-4.7c0-1.8-0.7-3.2-2-4.2c-1.3-1-3.3-1.5-5.8-1.5H49.4z"/>
			<linearGradient id="SVGID_2_" gradientUnits="userSpaceOnUse" x1="97.1063" y1="135.0049" x2="97.1063" y2="173.2821">
				<stop  offset="0" style="stop-color:#E33D9A"/>
				<stop  offset="1" style="stop-color:#4500D4"/>
			</linearGradient>
			<path class="st5" d="M97.1,135c5.1,0,9.4,1.9,12.8,5.8c3.3,3.7,5,8.2,5,13.4c0,5.3-1.6,9.8-4.8,13.4c-3.4,3.8-7.7,5.7-12.9,5.7
				c-5.2,0-9.5-1.8-12.8-5.5c-3.3-3.7-5-8.2-5-13.6c0-5.2,1.7-9.7,5-13.5C87.7,136.9,92,135,97.1,135z M97.1,144.1
				c-2.5,0-4.5,1.1-5.9,3.2c-1.3,1.9-1.9,4.2-1.9,6.8c0,2.7,0.6,5,1.9,6.8c1.5,2.2,3.5,3.2,6,3.2c2.5,0,4.5-1.1,5.9-3.2
				c1.3-1.9,1.9-4.2,1.9-6.9c0-2.6-0.6-4.9-1.9-6.7C101.6,145.2,99.6,144.1,97.1,144.1z"/>
			<linearGradient id="SVGID_3_" gradientUnits="userSpaceOnUse" x1="135.865" y1="135.0049" x2="135.865" y2="173.2821">
				<stop  offset="0" style="stop-color:#E33D9A"/>
				<stop  offset="1" style="stop-color:#4500D4"/>
			</linearGradient>
			<path class="st6" d="M153.6,141.9v24.5c0,1.9-0.2,3.3-0.6,4.1c-0.7,1.6-2.2,2.3-4.3,2.3c-1.4,0-2.4-0.3-3.1-1
				c-0.7-0.7-1.2-1.8-1.6-3.2c-1.3,1.5-2.8,2.7-4.3,3.5c-1.6,0.8-3.3,1.2-5.2,1.2c-4.6,0-8.5-1.8-11.7-5.4
				c-3.1-3.6-4.7-8.2-4.7-13.7c0-5.4,1.6-10,4.8-13.6c3.2-3.7,7-5.5,11.6-5.5c2,0,3.8,0.4,5.4,1.1c1.6,0.7,3,1.9,4.1,3.4
				c0.1-1.2,0.7-2.2,1.5-3c0.9-0.8,1.9-1.1,3.1-1.1c2.1,0,3.5,0.7,4.2,2.2C153.4,138.5,153.6,139.9,153.6,141.9z M128.1,154.1
				c0,2.7,0.6,5,1.9,6.8c1.5,2.2,3.5,3.2,6,3.2c2.4,0,4.4-1.1,5.8-3.2c1.3-1.9,1.9-4.2,1.9-6.9c0-2.6-0.6-4.9-1.9-6.7
				c-1.5-2.2-3.4-3.3-5.9-3.3c-2.5,0-4.5,1.1-5.9,3.2C128.7,149.3,128.1,151.5,128.1,154.1z"/>
			<linearGradient id="SVGID_4_" gradientUnits="userSpaceOnUse" x1="170.7684" y1="135.4182" x2="170.7684" y2="172.8688">
				<stop  offset="0" style="stop-color:#E33D9A"/>
				<stop  offset="1" style="stop-color:#4500D4"/>
			</linearGradient>
			<path class="st7" d="M159.9,167.4v-27c0-1.6,0.5-2.8,1.5-3.6c1-0.9,2.2-1.3,3.6-1.3c1.5,0,2.6,0.3,3.5,0.9
				c0.9,0.6,1.3,1.7,1.3,3.2c1.9-2.8,4.3-4.1,7-4.1c1.3,0,2.5,0.4,3.4,1.3c0.9,0.9,1.4,2.2,1.4,3.9c0,1.6-0.9,2.7-2.7,3.5
				c-1.1,0.5-2.2,0.9-3.2,1.3c-2.1,1-3.4,1.7-4.1,2.3c-1.2,1.1-1.9,2.5-1.9,4.3v15.3c0,1.7-0.5,3-1.4,4c-0.9,1-2.1,1.5-3.6,1.5
				c-1.5,0-2.7-0.5-3.6-1.5C160.3,170.3,159.9,169,159.9,167.4z"/>
			<linearGradient id="SVGID_5_" gradientUnits="userSpaceOnUse" x1="200.3018" y1="119.3776" x2="200.3018" y2="173.2821">
				<stop  offset="0" style="stop-color:#E33D9A"/>
				<stop  offset="1" style="stop-color:#4500D4"/>
			</linearGradient>
			<path class="st8" d="M218,124.9v42.5c0,1.7-0.5,3-1.4,4c-0.9,1-2.1,1.5-3.6,1.5c-2.7,0-4.4-1.4-5-4.1c-0.9,1.4-2.2,2.5-3.9,3.3
				c-1.7,0.8-3.4,1.2-5.2,1.2c-4.8,0-8.8-2-12-5.9c-2.9-3.6-4.4-7.9-4.4-12.9c0-5.2,1.3-9.7,4-13.4c3-4.1,7-6.2,12-6.2
				c1.7,0,3.4,0.3,5.1,0.9c1.7,0.6,3.1,1.4,4.4,2.6v-13.5c0-1.7,0.5-3,1.4-4c0.9-1,2.1-1.5,3.6-1.5c1.5,0,2.7,0.5,3.6,1.5
				C217.5,121.9,218,123.2,218,124.9z M208.1,153.9c0-2.7-0.6-4.9-1.9-6.7c-1.4-2.1-3.4-3.1-6-3.1c-2.4,0-4.3,1.1-5.8,3.2
				c-1.3,1.9-1.9,4.2-1.9,6.8c0,2.6,0.6,4.8,1.9,6.7c1.5,2.2,3.4,3.3,5.8,3.3c2.6,0,4.6-1.1,6-3.3
				C207.5,159,208.1,156.6,208.1,153.9z"/>
		</g>
	</g>
</g>
</svg>
