<?xml version="1.0" encoding="utf-8"?>
<!-- Generator: Adobe Illustrator 23.0.1, SVG Export Plug-In . SVG Version: 6.00 Build 0)  -->
<svg version="1.1" id="Layer_1" xmlns="http://www.w3.org/2000/svg" xmlns:xlink="http://www.w3.org/1999/xlink" x="0px" y="0px"
	 viewBox="0 0 256 256" style="enable-background:new 0 0 256 256;" xml:space="preserve">
<style type="text/css">
	.st0{fill:#E55A5A;}
	.st1{fill:#CC4A4A;}
	.st2{fill:#FFFFFF;}
</style>
<g>
	<g>
		<g>
			<path class="st0" d="M192,0.5H58.7C26.2,0.5-0.2,26.9-0.2,59.4v138.2c0,32.5,26.4,58.9,58.9,58.9H197c32.5,0,58.9-26.4,58.9-58.9
				V68.4H192V0.5z"/>
			<path class="st1" d="M197,0.5h-5v67.9h63.8v-9C255.8,26.9,229.5,0.5,197,0.5z"/>
		</g>
	</g>
	<path class="st2" d="M166.1,122.2L96.2,78.7c-5.4-3.4-10.8-0.6-10.8,6.3v87c0,6.8,5.4,9.7,10.8,6.3l69.9-42.6
		C172.9,131.3,170.4,124.8,166.1,122.2z"/>
</g>
</svg>
