<?xml version="1.0" encoding="utf-8"?>
<!-- Generator: Adobe Illustrator 23.0.1, SVG Export Plug-In . SVG Version: 6.00 Build 0)  -->
<svg version="1.1" id="Layer_1" xmlns="http://www.w3.org/2000/svg" xmlns:xlink="http://www.w3.org/1999/xlink" x="0px" y="0px"
	 viewBox="0 0 56 50" style="enable-background:new 0 0 56 50;" xml:space="preserve">
<style type="text/css">
	.st0{fill:#41A5ED;}
	.st1{fill:#2C7BD5;}
	.st2{fill:#195ABE;}
	.st3{fill:#103E91;}
	.st4{fill:#2166C3;}
	.st5{fill:#FFFFFF;}
	.st6{opacity:0.2;enable-background:new    ;}
</style>
<g>
	<path class="st0" d="M54.9,12.5H13.5v-10C13.5,1.1,14.6,0,16,0h36.4c1.3,0,2.4,1.1,2.4,2.4L54.9,12.5L54.9,12.5z"/>
	<rect x="13.5" y="12.5" class="st1" width="41.3" height="12.5"/>
	<rect x="13.5" y="25" class="st2" width="41.3" height="12.5"/>
	<path class="st3" d="M52.4,50H16c-1.3,0-2.4-1.1-2.4-2.4v-10h41.3v10C54.9,48.9,53.8,50,52.4,50z"/>
	<path class="st4" d="M26.1,38.7H3.8c-1.5,0-2.7-1.2-2.7-2.7V14c0-1.5,1.2-2.7,2.7-2.7h22.3c1.5,0,2.7,1.2,2.7,2.7V36
		C28.8,37.4,27.6,38.7,26.1,38.7z"/>
	<g>
		<path class="st5" d="M9.2,32.7L5.5,17.6h3l1.5,6.8c0.4,1.8,0.8,3.7,1,5.3h0c0.3-1.6,0.7-3.4,1.1-5.3l1.6-6.8h2.9l1.5,6.9
			c0.4,1.8,0.7,3.4,0.9,5.1h0c0.3-1.7,0.6-3.4,1.1-5.2l1.6-6.8h2.9l-4.1,15.1h-3l-1.6-7.1c-0.4-1.7-0.7-3.1-0.9-4.7h0
			c-0.3,1.6-0.5,3.1-1,4.8l-1.8,7.1L9.2,32.7L9.2,32.7z"/>
	</g>
	<path class="st6" d="M28.8,13.8c0,0.1,0,0.2,0,0.3V36c0,1.5-1.2,2.7-2.7,2.7H13.6v2.4h14.8c1.5,0,2.7-1.2,2.7-2.7V16.4
		C31,15.1,30.1,13.9,28.8,13.8z"/>
</g>
</svg>
