<?xml version="1.0" encoding="utf-8"?>
<!-- Generator: Adobe Illustrator 21.1.0, SVG Export Plug-In . SVG Version: 6.00 Build 0)  -->
<svg version="1.1" id="Layer_1" xmlns="http://www.w3.org/2000/svg" xmlns:xlink="http://www.w3.org/1999/xlink" x="0px" y="0px"
	 viewBox="0 0 346.4 321" style="enable-background:new 0 0 346.4 321;" xml:space="preserve">
<g>
	<g>
		<path d="M335.8,156.5c-5.5,0-9.9,4.4-9.9,9.9v89.9c0,24.5-19.9,44.3-44.3,44.3H64.8c-24.5,0-44.3-19.9-44.3-44.3v-91.4
			c0-5.5-4.4-9.9-9.9-9.9s-9.9,4.4-9.9,9.9v91.4c0,35.4,28.8,64.1,64.1,64.1h216.9c35.4,0,64.1-28.8,64.1-64.1v-89.9
			C345.7,161,341.3,156.5,335.8,156.5z"/>
		<path d="M166.2,241.9c1.9,1.9,4.5,2.9,7,2.9c2.5,0,5.1-1,7-2.9l62.8-62.8c3.9-3.9,3.9-10.1,0-14s-10.1-3.9-14,0l-45.9,46V10.5
			c0-5.5-4.4-9.9-9.9-9.9s-9.9,4.4-9.9,9.9v200.5l-46-46c-3.9-3.9-10.1-3.9-14,0c-3.9,3.9-3.9,10.1,0,14L166.2,241.9z"/>
	</g>
</g>
</svg>
