<?xml version="1.0" encoding="utf-8"?>
<!-- Generator: Adobe Illustrator 21.1.0, SVG Export Plug-In . SVG Version: 6.00 Build 0)  -->
<svg version="1.1" id="Layer_1" xmlns="http://www.w3.org/2000/svg" xmlns:xlink="http://www.w3.org/1999/xlink" x="0px" y="0px"
	 viewBox="0 0 480 480" style="enable-background:new 0 0 480 480;" xml:space="preserve">
<style type="text/css">
	.st0{fill:#EC6156;}
	.st1{fill:#FFFFFF;}
</style>
<g>
	<g>
		<circle class="st0" cx="240" cy="240" r="238"/>
	</g>
</g>
<g>
	<g>
		<g id="mic">
			<path class="st1" d="M318.7,232.6c0,44.5-37.1,75.7-78.7,75.7s-78.7-31.2-78.7-75.7h-25.2c0,50.5,40.1,92,89.1,99.4v49h29.7v-49
				c49-7.4,89.1-49,89.1-99.4L318.7,232.6L318.7,232.6z"/>
		</g>
	</g>
	<path class="st1" d="M240,277.1c25.2,0,44.5-19.3,44.5-44.5v-89.1c0-25.2-19.3-44.5-44.5-44.5s-44.5,19.3-44.5,44.5v89.1
		C195.5,257.8,214.8,277.1,240,277.1z"/>
</g>
</svg>
