<?xml version="1.0" encoding="utf-8"?>
<!-- Generator: Adobe Illustrator 21.1.0, SVG Export Plug-In . SVG Version: 6.00 Build 0)  -->
<svg version="1.1" id="Layer_1" xmlns="http://www.w3.org/2000/svg" xmlns:xlink="http://www.w3.org/1999/xlink" x="0px" y="0px"
	 viewBox="0 0 346.8 427" style="enable-background:new 0 0 346.8 427;" xml:space="preserve">
<path d="M232.4,154.7c-5.5,0-10,4.5-10,10v189c0,5.5,4.5,10,10,10s10-4.5,10-10v-189C242.4,159.2,237.9,154.7,232.4,154.7z"/>
<path d="M114.4,154.7c-5.5,0-10,4.5-10,10v189c0,5.5,4.5,10,10,10s10-4.5,10-10v-189C124.4,159.2,119.9,154.7,114.4,154.7z"/>
<path d="M29.6,127.8v244.4c0,14.4,5.3,28,14.5,37.7c9.2,9.8,22,15.3,35.4,15.3h187.7c13.4,0,26.2-5.6,35.4-15.3
	c9.3-9.7,14.5-23.3,14.5-37.7V127.8c18.4-4.9,30.3-22.7,27.9-41.5c-2.5-18.9-18.5-33-37.6-33h-50.8V40.9
	c0.1-10.4-4.1-20.4-11.4-27.8c-7.4-7.4-17.4-11.5-27.8-11.4h-88.1c-10.4-0.1-20.5,4-27.8,11.4C94.1,20.5,90,30.5,90.1,40.9v12.4
	H39.3c-19,0-35.1,14.1-37.6,33C-0.7,105.2,11.2,122.9,29.6,127.8z M267.2,405.4H79.6c-17,0-30.2-14.6-30.2-33.2V128.7h248v243.5
	C297.4,390.9,284.2,405.4,267.2,405.4z M109.9,40.9c-0.1-5.2,2-10.1,5.6-13.8c3.7-3.6,8.6-5.6,13.8-5.6h88.1
	c5.2-0.1,10.2,1.9,13.8,5.6c3.7,3.6,5.7,8.6,5.6,13.8v12.4h-127L109.9,40.9L109.9,40.9z M39.3,73.1h268.2c9.9,0,17.9,8,17.9,17.9
	s-8,17.9-17.9,17.9H39.3c-9.9,0-17.9-8-17.9-17.9S29.4,73.1,39.3,73.1z"/>
<path d="M173.4,154.7c-5.5,0-10,4.5-10,10v189c0,5.5,4.5,10,10,10s10-4.5,10-10v-189C183.4,159.2,178.9,154.7,173.4,154.7z"/>
</svg>
