<?xml version="1.0" encoding="utf-8"?>
<!-- Generator: Adobe Illustrator 23.0.1, SVG Export Plug-In . SVG Version: 6.00 Build 0)  -->
<svg version="1.1" id="Layer_1" xmlns="http://www.w3.org/2000/svg" xmlns:xlink="http://www.w3.org/1999/xlink" x="0px" y="0px"
	 viewBox="0 0 444.9 120.5" style="enable-background:new 0 0 444.9 120.5;" xml:space="preserve">
<style type="text/css">
	.st0{fill:#FFFFFF;}
</style>
<g>
	<g>
		<path class="st0" d="M18,29.2c0.5-2.1,0.6-4.3,1.7-5.8c0.4-0.6,3.3,0.3,4.8,0.9c11,5.1,22,10.4,33,15.4c2.8,1.3,4.1,2.9,4.1,6
			c-0.1,21.3,0,42.7-0.1,64c0,7.8-9.6,13.1-17.4,9.6c-13.3-6-26.5-12.4-39.7-18.9c-1.6-0.8-3.3-3.4-3.3-5.2C1,75.5,1.1,55.7,1,35.8
			c0-4,1.5-5,5.3-3.2c12.3,5.9,24.6,11.7,37,17.5c4.4,2,8.8,2.2,12.5-1.4c2.1-2,2.1-4-1-5.4C44.9,38.6,35,33.8,25,29.3
			C23.3,28.6,20.9,29.2,18,29.2z M48.8,59.6c0.3,2.1,0.7,4.3,1,6.4c2.2-0.4,5.1-0.1,6.4-1.4c1.7-1.7,2.1-4.7,3.2-7.8
			C55.1,57.9,52.3,58.6,48.8,59.6z"/>
		<path class="st0" d="M61.2,4.9c0.3-1,0.3-3.3,1.5-4.6c0.6-0.7,3.4,0.2,4.9,0.9c11.2,5.2,22.4,10.3,33.3,15.8
			c1.8,0.9,3.6,3.7,3.6,5.6c0.3,21.3,0.2,42.6,0.1,63.9c0,7.8-7.5,12-16.7,9.6c0-22.4,0-45,0-67.7c2.8-0.3,5.6-0.1,7.9-1.1
			c1.7-0.7,3.2-2.7,4-4.5c0.2-0.5-2-2.7-3.5-3.4c-8.5-4.2-17.1-8.3-25.7-12.1C68,6.1,65,5.8,61.2,4.9z M91.7,36.4
			c0.4,2.1,0.3,5.4,1.4,6c1.6,0.8,5,0.2,6.3-1.2c1.6-1.7,1.9-4.7,3-7.8C98.2,34.6,95.5,35.4,91.7,36.4z"/>
		<path class="st0" d="M39.6,16.5c0.3-1.1,0.2-3.5,1.4-4.6c0.8-0.7,3.4,0,4.9,0.7C57.1,17.8,68.3,23,79.3,28.5
			c1.9,0.9,3.8,3.9,3.8,6c0.3,21.1,0.2,42.3,0.1,63.4c0,8-6.3,11.8-16.6,10.1c0-22.5,0-45,0-68c2.2-0.2,4.7,0.2,6.6-0.7
			c2-0.9,3.5-3,5.3-4.6c-1.3-1.3-2.4-2.9-4-3.7c-8.6-4.3-17.4-8.4-26.1-12.3C46.1,17.6,43.4,17.4,39.6,16.5z M70.1,48.3
			c0.4,1.8,0.1,4.7,1.4,5.8c1,0.9,4.7,0.4,5.8-0.8c1.9-2.1,2.6-5.3,4.2-8.7C76.9,46.1,73.9,47,70.1,48.3z"/>
	</g>
	<g>
		<path class="st0" d="M142.3,38.6h29.4v8h-19.8v10.7h19.6v7.9h-19.6v11.4h19.8v8h-29.4V38.6z"/>
		<path class="st0" d="M176.9,56.4h19.8v7.9h-19.8V56.4z"/>
		<path class="st0" d="M216.5,65.5h-3.6v19h-9.6V38.6h19.2c9.2,0,15.3,3.8,15.3,13.3c0,7-3.4,12.3-10.9,13.3L241,84.5H230
			L216.5,65.5z M212.9,58.5h6.9c4.9,0,8.1-1.2,8.1-6.4c0-5.1-3.4-6.1-8.1-6.1h-6.9V58.5z"/>
		<path class="st0" d="M244.3,38.6h29.4v8h-19.8v10.7h19.6v7.9h-19.6v11.4h19.8v8h-29.4V38.6z"/>
		<path class="st0" d="M307.9,74.8h-19.2l-3.1,9.7h-10l15.6-45.9h14.4l15.6,45.9h-10L307.9,74.8z M305.5,67.2l-7.1-21.8h-0.1
			l-7.1,21.8H305.5z"/>
		<path class="st0" d="M324.8,38.6H343c15.3,0,22.2,8.8,22.2,22.9c0,14.1-7,22.9-22.2,22.9h-18.1V38.6z M341.5,76.2
			c10.1,0,13.5-5.6,13.5-14.7c0-9.1-3.3-14.7-13.5-14.7h-7v29.4H341.5z"/>
		<path class="st0" d="M370.8,38.6h29.4v8h-19.8v10.7H400v7.9h-19.6v11.4h19.8v8h-29.4V38.6z"/>
		<path class="st0" d="M419.3,65.5h-3.6v19h-9.6V38.6h19.2c9.2,0,15.3,3.8,15.3,13.3c0,7-3.4,12.3-10.9,13.3l14.1,19.2h-11.1
			L419.3,65.5z M415.7,58.5h6.9c4.9,0,8.1-1.2,8.1-6.4c0-5.1-3.4-6.1-8.1-6.1h-6.9V58.5z"/>
	</g>
</g>
</svg>
