<svg width="196" height="160" viewBox="0 0 196 160" fill="none" xmlns="http://www.w3.org/2000/svg">
<g clip-path="url(#clip0_646_1654)">
<g opacity="0.41">
<path d="M181.496 105.707C181.672 102.768 181.594 99.8287 181.261 96.9093C179.733 83.1938 172.836 70.2818 162.706 61.1512C159.081 57.8987 154.967 54.9793 152.615 50.6883C148.658 43.4584 148.951 35.1507 144.033 27.9991C139.096 20.8475 131.925 15.2634 123.813 12.4028C99.6348 3.87962 65.8165 17.791 68.8731 47.475C68.8927 47.573 68.8927 47.7297 68.9123 47.9257C69.3237 54.0976 64.5821 59.2703 58.5277 59.427C36.25 59.9756 17.0484 77.4922 12.9534 99.6915C10.3083 113.975 14.6384 129.63 24.8662 139.721C32.5077 147.264 42.7746 151.399 53.022 154.259C73.5951 159.961 95.2458 161.156 116.446 158.981C136.294 156.944 157.239 151.124 170.093 135.528C176.95 127.22 180.889 116.561 181.496 105.707Z" fill="#DEDFFB"/>
</g>
<g opacity="0.31">
<path d="M175.411 43.3726C175.841 40.7126 174.033 38.2079 171.373 37.7781C168.713 37.3483 166.208 39.1563 165.778 41.8162C165.348 44.4762 167.156 46.981 169.816 47.4107C172.476 47.8405 174.981 46.0326 175.411 43.3726Z" fill="#DEDFFB"/>
</g>
<g opacity="0.31">
<path d="M55.7597 28.8189C56.2101 27.0129 55.1112 25.1838 53.3053 24.7334C51.4993 24.2829 49.6702 25.3818 49.2197 27.1878C48.7693 28.9937 49.8682 30.8229 51.6742 31.2733C53.4801 31.7237 55.3093 30.6249 55.7597 28.8189Z" fill="#DEDFFB"/>
</g>
<g opacity="0.31">
<path d="M13.5999 157.982C17.8418 157.982 21.2806 154.543 21.2806 150.301C21.2806 146.059 17.8418 142.621 13.5999 142.621C9.35805 142.621 5.91931 146.059 5.91931 150.301C5.91931 154.543 9.35805 157.982 13.5999 157.982Z" fill="#DEDFFB"/>
</g>
<g opacity="0.31">
<path d="M67.815 12.8141C71.3535 12.8141 74.2221 9.94557 74.2221 6.40705C74.2221 2.86854 71.3535 0 67.815 0C64.2765 0 61.408 2.86854 61.408 6.40705C61.408 9.94557 64.2765 12.8141 67.815 12.8141Z" fill="#DEDFFB"/>
</g>
<g opacity="0.31">
<path d="M181.6 73.2001C187.454 73.2001 192.2 68.4543 192.2 62.6C192.2 56.7458 187.454 52 181.6 52C175.746 52 171 56.7458 171 62.6C171 68.4543 175.746 73.2001 181.6 73.2001Z" fill="#DEDFFB"/>
</g>
<path opacity="0.47" d="M6.09537 47.5728C3.07798 54.1367 2.23546 61.6997 3.70497 68.7729C5.4096 77.1002 10.5823 83.4876 8.79927 92.3634C7.70203 97.7712 7.42772 102.787 6.87911 108.136C5.7231 119.128 12.8551 128.807 21.6917 134.019C28.8825 138.271 37.3077 139.858 45.5565 139.74C53.0021 139.642 60.4084 138.271 67.6188 136.409C74.5548 134.626 81.3538 132.295 88.6229 133.02C94.6773 133.627 100.124 136.253 105.767 138.212C119.228 142.875 135.53 143.522 147.834 136.429C155.73 131.883 161.256 124.477 163.705 116.542C165.664 110.193 165.919 104.257 164.45 97.7712C162.941 91.1095 160.394 84.4085 161.177 77.4724C161.726 72.6329 163.94 67.9696 163.529 63.13C163.254 59.9167 161.844 56.8797 160.1 54.1562C153.771 44.2028 143.171 37.5214 131.944 33.8574C121.383 30.409 110.509 27.901 99.5169 28.724C76.7885 30.4482 72.1644 26.843 48.9266 21.8663C33.9376 18.6529 17.1657 30.0955 8.3878 43.3407C7.56488 44.673 6.78114 46.1033 6.09537 47.5728Z" fill="#DEDFFB"/>
<g opacity="0.78">
<path opacity="0.81" d="M21.7309 57.8007C21.2607 63.0518 23.0241 68.44 21.5546 73.6322C19.7912 79.8433 14.6577 84.5066 12.5808 90.6197C9.50462 99.6327 9.64177 109.743 13.3841 118.54C15.1867 122.773 17.8318 126.711 21.437 129.434C26.982 133.627 34.2707 134.548 41.1088 134.019C51.2974 133.235 62.0346 128.807 72.282 130.022C77.9249 130.688 79.6687 136.801 82.5881 140.838C85.8798 145.403 90.3863 148.989 95.3631 151.379C104.513 155.768 115.505 156.199 124.871 152.202C134.863 147.95 143.563 137.566 142.995 125.81C142.72 120.382 140.546 114.974 141.564 109.625C142.838 102.924 147.873 96.8113 151.537 91.3447C155.574 85.3099 158.023 78.1191 158.513 70.7912C158.513 70.7128 158.532 70.6344 158.532 70.5365C159.277 57.8791 151.302 46.3386 139.252 42.3611L113.624 33.9359C87.5845 25.3932 61.584 25.6675 37.68 38.2269C32.5073 40.9504 24.0821 49.0425 22.3383 54.6266C22.0052 55.665 21.8289 56.7231 21.7309 57.8007Z" fill="#DEDFFB"/>
</g>
<path d="M176.407 226.328C174.834 240.535 164.401 249.544 153.803 249.544H132.689L134.345 166.844C134.345 166.844 154.465 157.834 159.516 166.382C163.904 173.889 175.993 203.574 176.573 221.246C176.655 222.978 176.573 224.711 176.407 226.328Z" fill="#DDE8FD"/>
<path d="M120.435 175.622C120.435 175.622 148.918 155.409 154.3 168.576C157.198 175.622 165.064 203.689 165.643 221.246C166.223 238.341 155.625 249.544 144.695 249.544H125.32L120.435 175.622Z" fill="#3662C1"/>
<path d="M125.734 186.825C125.486 188.558 123.168 190.175 119.773 191.561C119.193 191.792 118.531 192.023 117.869 192.254C106.194 196.412 85.66 198.722 83.6728 197.452C80.9405 195.719 64.298 113.134 64.298 113.134C64.298 113.134 80.1953 112.326 92.8635 111.864C97.169 111.748 101.143 111.633 103.876 111.633C104.207 111.633 104.538 111.633 104.869 111.748C106.111 111.979 106.939 112.672 107.684 113.712C109.754 116.715 110.251 122.836 112.073 129.42C113.894 136.004 116.213 144.205 118.365 152.405C118.945 154.484 119.442 156.564 120.021 158.643C120.187 159.22 120.353 159.798 120.435 160.375C123.665 173.081 126.148 184.053 125.734 186.825Z" fill="#BED2FA"/>
<path d="M135.008 227.137C133.269 240.881 123.913 249.66 114.308 249.66H94.9333L96.4237 166.959C96.4237 166.959 114.971 157.95 119.607 166.497C123.664 174.005 134.759 203.689 135.339 221.361C135.339 223.325 135.256 225.288 135.008 227.137Z" fill="#DDE8FD"/>
<path d="M104.952 249.544C104.786 249.544 104.621 249.544 104.538 249.544C104.207 249.544 103.958 249.544 103.627 249.544C103.544 249.544 103.462 249.544 103.296 249.544H83.9212C83.59 249.544 83.176 249.544 82.762 249.544C80.7748 249.544 78.7048 249.66 76.7177 249.66C76.3865 249.66 76.0553 249.66 75.7241 249.66C75.6413 249.66 75.4757 249.66 75.3929 249.66C73.4885 249.66 71.7498 249.66 70.5906 249.66C68.9346 249.66 67.2786 249.429 65.7883 249.198C63.8839 248.736 62.0623 248.043 60.4064 247.119C59.8268 246.772 59.2472 246.31 58.6676 245.964C57.9224 245.386 57.26 244.693 56.5976 244C54.8589 242.036 53.3685 239.611 52.1265 236.723C51.2157 234.644 50.4705 232.334 49.8082 229.678C48.9802 226.328 48.3178 222.632 47.7382 218.358C46.993 212.236 46.579 205.191 46.4134 196.99C46.3306 193.64 46.3306 190.175 46.4134 186.595C46.4962 180.704 46.6618 174.467 46.993 167.537C47.407 157.95 48.0694 147.323 48.8974 135.773C49.6426 125.147 50.5533 117.754 51.8781 116.022C53.7825 113.481 57.8396 112.557 60.6548 112.095C62.3935 111.864 63.6355 111.864 63.6355 111.864C67.1131 111.864 70.1766 115.329 71.253 120.411C73.4885 130.806 77.5457 149.518 81.6856 169.038C81.6856 169.154 81.7684 169.269 81.7684 169.385C82.0168 170.54 82.2652 171.579 82.5136 172.734C82.5136 172.85 82.5964 173.081 82.5964 173.196C82.8448 173.081 83.0932 172.85 83.3416 172.734C84.3351 172.157 85.4943 171.464 86.7363 170.771C87.3987 170.424 88.0611 170.078 88.7235 169.731C90.6278 168.692 92.6978 167.652 94.7678 166.844C95.6785 166.497 96.6721 166.151 97.5829 165.804C98.7421 165.342 99.9841 164.995 101.143 164.764H101.226C101.392 164.764 101.474 164.649 101.64 164.649C106.608 163.609 110.913 164.302 112.735 168.692C115.633 175.737 123.499 203.805 124.078 221.477C124.741 237.532 115.219 248.505 104.952 249.544Z" fill="#5076C9"/>
<path d="M73.8196 176.315C73.8196 176.315 63.8837 119.718 63.1386 114.982C62.8074 112.903 61.8138 112.095 60.8202 111.864C62.559 111.633 63.8837 111.633 63.8837 111.633C67.3613 111.633 70.4248 115.098 71.5012 120.18C73.9024 131.384 78.3735 151.943 82.8446 172.85C82.5962 172.734 73.8196 176.315 73.8196 176.315Z" fill="#DDE8FD"/>
<path d="M157.389 142.439C157.389 142.439 162.475 145.327 163.978 145.327C165.365 145.327 171.03 144.287 172.648 145.096C174.266 145.904 177.041 149.138 177.619 150.178C178.543 152.026 173.688 151.217 171.492 149.6C171.145 149.369 170.798 149.254 170.336 149.369C169.18 149.6 166.637 150.062 165.481 149.6C163.863 149.023 155.424 148.33 155.424 148.33L157.389 142.439Z" fill="#FC9290"/>
<path d="M118.202 102.59C118.202 102.59 123.519 140.476 132.42 143.825C136.813 145.442 156.002 149.254 161.782 149.716C161.782 149.716 163.169 148.561 162.822 143.941C162.822 143.941 142.593 136.548 139.818 132.506C135.541 126.5 142.477 108.019 137.16 102.359C131.611 96.8151 122.595 94.3896 118.202 102.59Z" fill="#7D86D7"/>
<path d="M120.051 182.404C121.554 185.06 123.404 187.486 125.253 189.796C131.033 197.072 137.275 202.963 138.316 208.623C138.547 209.778 138.894 210.933 139.356 212.203C139.818 213.474 140.396 214.86 140.974 216.246C143.402 221.559 146.985 227.45 150.685 232.763C156.927 242.003 162.822 249.858 162.822 249.858L173.688 249.396C173.226 248.356 168.486 235.535 162.244 219.827C159.701 213.474 156.927 206.659 154.268 200.191C153.921 199.267 153.574 198.459 153.228 197.535C152.419 195.571 151.609 193.607 150.916 191.644C145.02 176.975 140.281 165.193 140.281 165.193C140.281 165.193 116.584 156.184 114.156 162.075C111.96 166.926 113.694 171.662 120.051 182.404Z" fill="#030231"/>
<path d="M139.125 100.28C131.958 102.128 120.167 95.5445 120.167 95.5445C120.167 95.5445 124.791 92.4259 126.409 85.7267C126.525 85.3802 126.525 85.0337 126.64 84.6872C127.334 84.5717 128.837 84.2252 130.34 83.8787L135.773 88.7298C135.773 88.7298 135.657 90.8089 134.963 94.274C134.848 94.8515 134.732 95.5445 134.501 96.2376C137.507 97.9701 139.125 100.28 139.125 100.28Z" fill="#FC9290"/>
<path d="M112.538 129.734C113.578 143.479 112.191 164.269 113.347 167.965C114.387 171.084 125.716 169.236 130.34 168.196C132.073 167.85 134.039 167.272 136.119 166.579C142.015 164.731 148.373 162.19 149.066 160.227C149.066 160.111 149.066 160.111 149.182 159.996C149.297 159.765 149.182 159.418 149.182 159.187C148.951 158.263 148.026 157.108 147.91 154.683C147.795 152.026 147.795 148.792 147.679 145.327C147.679 144.98 147.679 144.518 147.679 144.172V144.056C147.679 143.941 147.679 143.941 147.679 143.825C147.563 140.014 147.332 135.971 147.101 131.928C146.985 129.387 146.754 126.962 146.639 124.536C146.176 118.414 145.483 112.87 144.558 109.521C143.055 103.861 139.818 100.165 136.813 97.5082L134.617 95.6601C132.189 96.2376 129.299 95.8911 126.756 94.6206C123.982 93.35 122.941 92.3105 122.479 92.657C116.006 97.7392 111.382 112.986 112.538 129.734Z" fill="#8A92DD"/>
<path d="M136.235 166.58C142.13 164.732 148.488 162.191 149.182 160.227C149.182 160.111 149.182 160.111 149.297 159.996C149.297 159.765 149.297 159.418 149.297 159.187C149.066 158.263 148.141 157.108 148.026 154.683C147.91 152.026 147.91 148.792 147.795 145.327C147.795 144.98 147.795 144.518 147.795 144.172V144.056C147.795 143.941 147.795 143.941 147.795 143.825L124.097 113.563C123.982 113.679 108.029 146.829 136.235 166.58Z" fill="#7B83D7"/>
<path d="M135.773 88.7298C135.773 88.7298 135.657 90.8089 134.963 94.274C129.646 92.5414 127.218 87.8058 126.409 85.7267C126.525 85.3802 126.525 85.0337 126.64 84.6872C127.334 84.5717 128.837 84.2252 130.34 83.8787L135.773 88.7298Z" fill="#EA8888"/>
<path d="M136.466 91.7331C136.466 91.7331 124.906 89.7695 126.178 82.6083C127.45 75.447 126.872 70.3649 134.385 71.2889C141.899 72.2129 142.824 75.216 142.94 77.7571C143.055 80.1827 139.472 92.0796 136.466 91.7331Z" fill="#FC9290"/>
<path d="M182.179 153.366L183.168 153.688L191.884 126.886L190.894 126.564L182.179 153.366Z" fill="#3A49CD"/>
<path d="M153.579 153.03L183.165 153.661L183.202 151.929L153.616 151.298L153.579 153.03Z" fill="#3A49CD"/>
<path d="M154.152 154.451C154.152 154.451 163.631 156.992 167.215 156.646C170.798 156.415 173.688 154.682 174.151 153.758C174.613 152.834 175.538 151.333 173.11 151.564C170.683 151.91 167.33 152.372 167.33 151.91C167.215 151.448 169.296 151.448 169.296 151.448C169.296 151.448 169.874 150.524 169.18 150.524C168.371 150.524 166.059 149.831 165.25 150.293C164.441 150.755 163.631 152.257 162.938 152.257C162.36 152.141 154.962 148.907 154.962 148.907L154.152 154.451Z" fill="#FC9290"/>
<path d="M120.629 104.207C120.629 104.207 121.785 142.439 130.108 146.828C134.27 149.023 152.996 154.914 158.545 155.838C158.545 155.838 160.048 154.914 160.279 150.293C160.279 150.293 141.09 140.707 138.662 136.433C135.079 129.965 143.98 112.408 139.24 106.171C134.616 99.9337 125.831 96.5841 120.629 104.207Z" fill="#8A92DD"/>
<path d="M126.409 85.6114C126.409 85.6114 126.294 83.1859 127.796 81.6843C127.796 81.6843 127.218 79.2587 128.259 78.7967C129.184 78.3347 129.415 80.4138 129.877 80.1828C130.34 79.8363 132.305 78.3347 133.229 76.0246C134.039 73.7146 141.899 76.4866 142.824 76.9487C143.749 77.4107 146.639 75.7936 147.217 74.6386C147.217 74.6386 145.598 73.368 144.905 72.3285C144.211 71.4045 139.009 64.7053 131.842 66.6688C124.675 68.5169 123.635 71.982 124.097 74.8696C124.444 77.7572 123.519 84.6874 126.409 85.6114Z" fill="#120E59"/>
<path d="M10.4739 93.0372L16.7161 92.4597C17.1785 92.4597 17.6409 92.6907 17.8721 93.1527L22.4959 104.357C22.8427 105.05 22.2647 105.858 21.5712 105.974L15.0977 106.551C14.6354 106.551 14.173 106.32 13.9418 105.858L9.54911 94.6543C9.20232 93.9613 9.66471 93.1527 10.4739 93.0372Z" fill="#0D0D38"/>
<path d="M88.8482 241.46L85.6115 243.192C85.6115 243.192 67.8096 224.365 63.6481 206.346C62.839 203.112 62.6078 199.994 62.9546 196.875C62.9546 196.875 62.7234 196.067 62.261 194.565C62.261 194.45 62.261 194.45 62.1454 194.334C61.9142 193.757 61.683 192.948 61.4518 192.139C60.6426 189.367 59.3711 185.671 58.0995 181.398C54.9784 171.58 47.927 149.519 44.9215 140.394L66.6537 132.54C66.6537 132.54 69.0812 138.199 72.6647 153.446C73.2427 155.409 73.7051 157.604 74.283 160.029C74.861 162.802 75.439 165.689 75.9014 168.923C76.7106 174.352 77.1729 180.474 77.1729 187.173C77.1729 189.945 77.1729 192.717 76.9418 195.605C76.8262 197.799 77.1729 200.571 77.7509 203.805C80.2941 218.936 88.8482 241.46 88.8482 241.46Z" fill="#120E59"/>
<path d="M75.6703 169.154L62.0299 194.565C61.7987 193.987 61.5675 193.179 61.3363 192.37C60.5272 189.598 59.2556 185.902 57.984 181.629C54.8629 171.811 47.8115 149.75 44.806 140.625L66.5382 132.771C66.5382 132.771 68.9657 138.43 72.5492 153.677C73.1272 155.64 73.5896 157.835 74.1676 160.26C74.7455 162.917 75.2079 165.92 75.6703 169.154Z" fill="#0D0D38"/>
<path d="M16.6004 113.134C16.4848 113.25 11.283 107.937 8.50867 104.934L11.283 103.201L26.4261 112.672L16.6004 113.134Z" fill="#FDB3B1"/>
<path d="M58.7932 50.5318C58.9088 50.0698 60.1804 45.1031 67.8097 46.1427C67.8097 46.1427 63.9951 45.9117 63.0703 47.5287C63.0703 47.5287 65.9602 45.9117 67.9253 46.9512C69.8905 47.9907 70.4685 51.8023 70.3529 53.0729C70.1217 54.2279 68.2721 57.924 66.885 58.0395C66.307 58.0395 65.729 57.924 65.2666 57.8085C65.4978 58.3861 65.729 59.0791 65.9602 59.7721C67.9253 66.5868 63.6483 72.131 61.2207 71.0915C59.6024 70.3984 58.6776 73.1705 58.6776 73.1705L44.806 57.3465C44.806 57.231 52.8978 45.9117 58.7932 50.5318Z" fill="#12123C"/>
<path d="M44.5747 93.1527C46.4243 94.4232 48.6206 95.4627 51.5105 96.1558C62.1454 98.5813 66.3069 89.572 67.8096 83.4504C66.3069 82.6418 65.0353 82.4108 64.2261 82.2953C63.4169 82.1798 62.6078 82.1798 61.9142 82.0643C60.7582 81.1403 58.9087 77.4442 58.5619 71.5535L58.0995 71.669L49.661 73.979C49.661 73.979 50.0077 76.6356 50.2389 79.1767C50.3545 81.1403 50.3545 82.9883 50.0077 83.4504C49.3142 83.5659 48.9674 83.6814 48.9674 83.6814C48.8518 83.9124 46.4243 87.955 44.5747 93.1527Z" fill="#FDB3B1"/>
<path d="M49.6609 73.979C49.6609 73.979 50.0077 76.6356 50.2389 79.1767C54.9783 78.7147 57.1747 74.21 58.0994 71.6689L49.6609 73.979Z" fill="#FC9492"/>
<path d="M48.2739 76.5199C48.2739 76.5199 59.6023 75.9424 59.14 68.8967C58.6776 61.851 59.7179 56.9998 52.551 57.1153C45.1528 57.1153 43.9968 59.8874 43.5344 62.313C43.1876 64.7385 45.2684 76.4044 48.2739 76.5199Z" fill="#FDB3B1"/>
<path d="M43.6501 58.3861C45.2684 56.1915 46.6556 56.538 47.3492 57.1156C53.2446 53.3039 57.6373 58.0396 57.6373 58.0396C58.7932 63.0062 62.6079 65.6628 62.6079 65.6628C62.6079 65.6628 60.6428 67.0489 55.7877 66.2404C54.285 66.0093 52.8978 65.0853 51.7418 63.8148C53.9382 66.9334 56.7125 69.0124 56.7125 69.0124C50.8171 66.8179 48.0428 59.0791 47.696 58.2706C47.0024 58.9636 45.7308 60.3497 45.4996 61.7357C45.0372 63.5838 45.0372 67.2799 43.9969 67.2799C43.9969 67.1644 41.2226 61.7357 43.6501 58.3861Z" fill="#12123C"/>
<path d="M46.4242 83.1039C46.4242 83.1039 64.9197 78.5992 72.8958 85.1829L68.8499 141.087L32.7838 132.424C32.7838 132.424 33.8242 128.843 40.76 119.488C47.5802 110.132 44.5747 96.2713 46.4242 83.1039Z" fill="#FDB3B1"/>
<path d="M57.1748 134.965C57.1748 134.965 57.1748 135.196 57.0592 135.543C57.0592 135.658 57.0592 135.889 56.9436 136.12C56.828 137.622 56.4812 140.394 56.1345 143.974C55.0941 153.446 53.5913 168.692 52.551 180.705C51.7418 190.06 51.1638 197.568 51.5106 198.723C52.3198 202.304 51.5106 245.271 51.5106 245.271C48.3895 246.773 43.7656 245.271 43.7656 245.271C43.7656 245.271 35.5583 206.577 36.7142 201.264C37.8702 195.836 35.9051 191.331 35.9051 191.331C29.5472 161.878 30.2408 145.476 31.5124 137.622C31.8592 135.312 32.3216 133.81 32.5528 132.886C32.7839 132.078 33.0151 131.731 33.0151 131.731C47.1179 127.688 57.1748 134.965 57.1748 134.965Z" fill="#120E59"/>
<path d="M68.8499 141.202C64.5728 143.05 60.2958 143.743 56.2499 143.974C52.5508 144.09 48.9673 143.628 45.8462 142.935C38.9104 141.433 33.7085 138.661 31.7434 137.391C32.0902 135.081 32.5526 133.579 32.7838 132.655C37.0608 129.652 47.5801 132.539 56.1343 135.774C56.4811 135.889 56.7123 136.005 57.0591 136.12C63.6481 138.546 68.8499 141.202 68.8499 141.202Z" fill="#0D0D38"/>
<path d="M75.3236 101.238C74.3988 107.937 70.8153 116.138 69.5438 120.642C69.5438 120.642 71.6245 136.004 69.6594 140.278C69.4282 140.74 69.197 141.087 68.8502 141.202C61.3364 144.436 32.7716 141.471 31.5 132C31.0376 128.535 40.422 116.502 41 115C41.2312 114.422 41.8006 112 41.8006 108.284C39.8354 114.174 36.2519 121.104 32.6685 122.26C28.8538 123.415 13.2482 111.864 13.2482 111.864C13.2482 111.864 13.1326 110.478 15.0978 109.092C16.3693 108.284 19.2593 107.937 19.2593 107.937L29.2006 112.442C30.4721 110.363 33.5932 95.5781 37.0611 88.8789C39.7198 83.9123 46.6556 83.1037 46.6556 83.1037C46.6556 83.1037 49.5455 87.7239 56.5969 87.0309C63.6483 86.3378 64.9199 82.0642 64.9199 82.0642C64.9199 82.0642 71.1621 82.8727 73.0116 84.4898C73.474 84.7208 76.4795 92.4595 75.3236 101.238Z" fill="#8DA6FF"/>
<path d="M70.5 121C70.5 121 71.74 136.005 69.7749 140.279C64.3418 137.506 57.1749 131.616 59.3712 122.375C62.4923 108.861 75.4391 101.354 75.4391 101.354C74.3987 107.937 71.7716 116.495 70.5 121Z" fill="#809AF7"/>
<path d="M64.9199 110.247C64.9199 110.247 57.1749 111.402 56.4814 111.98C55.9034 112.557 53.7071 115.907 53.9382 117.062C54.1694 118.217 54.1694 119.488 54.6318 119.372C55.0942 119.257 56.7126 116.254 57.2905 116.138C57.8685 116.023 58.3309 115.56 58.4465 115.907C58.5621 116.138 57.2905 117.409 57.2905 117.755C57.4061 118.102 58.3309 117.64 58.7933 116.947C59.2557 116.254 60.4117 115.907 60.5272 115.445C60.6428 114.983 61.452 113.597 62.4924 113.597C63.6484 113.828 64.9199 110.247 64.9199 110.247Z" fill="#FDB3B1"/>
<path d="M72.5492 109.901L64.9198 110.247L62.3767 113.828L72.6648 114.174L72.5492 109.901Z" fill="#FDB3B1"/>
<path d="M64.9198 82.0642C64.9198 82.0642 73.9363 83.1037 76.4794 87.0309C79.6006 91.882 90.8134 108.168 90.4666 113.135C90.4666 113.135 83.5308 115.907 64.9198 114.405C64.9198 114.405 64.573 111.633 68.5033 109.323C68.5033 109.323 78.5602 107.937 79.6006 107.013L72.2024 99.1588L64.9198 82.0642Z" fill="#8DA6FF"/>
<path d="M9.08656 93.1525L15.3288 92.575C15.7912 92.575 16.2535 92.806 16.4847 93.268L21.1086 104.472C21.4554 105.165 20.8774 105.973 20.1838 106.089L13.7104 106.666C13.248 106.666 12.7856 106.435 12.5545 105.973L8.16178 94.7695C7.81499 94.0765 8.27738 93.268 9.08656 93.1525Z" fill="#120E59"/>
<path d="M8.50867 104.934C8.50867 104.934 6.89031 102.162 7.00591 101.469C7.12151 100.776 8.85546 97.5421 9.66463 97.1956C11.1674 96.618 13.3637 96.2715 12.7857 97.8886C12.4389 98.9281 10.8206 100.545 11.0518 101.007C11.283 101.469 11.1674 103.202 11.1674 103.202L8.50867 104.934Z" fill="#FDB3B1"/>
</g>
<defs>
<clipPath id="clip0_646_1654">
<rect width="195.934" height="160" fill="white"/>
</clipPath>
</defs>
</svg>
