<?xml version="1.0" encoding="utf-8"?>
<!-- Generator: Adobe Illustrator 23.0.1, SVG Export Plug-In . SVG Version: 6.00 Build 0)  -->
<svg version="1.1" id="Layer_1" xmlns="http://www.w3.org/2000/svg" xmlns:xlink="http://www.w3.org/1999/xlink" x="0px" y="0px"
	 viewBox="0 0 256 256" style="enable-background:new 0 0 256 256;" xml:space="preserve">
<style type="text/css">
	.st0{fill:#67BF91;}
	.st1{fill:#5EAA80;}
	.st2{fill:#FFFFFF;}
</style>
<g>
	<g>
		<g>
			<path class="st0" d="M192.1,0.6H58.8C26.3,0.6,0,27,0,59.5v138.2c0,32.5,26.4,58.9,58.9,58.9h138.2c32.5,0,58.9-26.4,58.9-58.9
				V68.5h-63.8V0.6z"/>
			<path class="st1" d="M197.1,0.6h-5v67.9H256v-9C256,27,229.6,0.6,197.1,0.6z"/>
		</g>
	</g>
	<g>
		<path class="st2" d="M152.8,100.5l-9.4,9.4c4.8,4.8,7.8,11.4,7.8,18.7c0,7.3-3,13.9-7.8,18.7l9.4,9.4c7.2-7.2,11.7-17.1,11.7-28.1
			S160,107.7,152.8,100.5z"/>
		<path class="st2" d="M171.5,81.8l-9.3,9.3c9.6,9.6,15.5,22.8,15.5,37.5s-5.9,27.9-15.5,37.5l9.3,9.3c12-12,19.4-28.6,19.4-46.8
			S183.5,93.8,171.5,81.8z"/>
		<path class="st2" d="M118,91v75.2l-30.9-31h-8.8V122h8.8L118,91 M131.3,72.3H118l-36.4,36.4H65v39.7h16.6l36.5,36.5h13.2V72.3
			L131.3,72.3z"/>
	</g>
</g>
</svg>
