<?xml version="1.0" encoding="utf-8"?>
<!-- Generator: Adobe Illustrator 23.0.1, SVG Export Plug-In . SVG Version: 6.00 Build 0)  -->
<svg version="1.1" id="Layer_1" xmlns="http://www.w3.org/2000/svg" xmlns:xlink="http://www.w3.org/1999/xlink" x="0px" y="0px"
	 viewBox="0 0 50 50" style="enable-background:new 0 0 50 50;" xml:space="preserve">
<style type="text/css">
	.st0{fill:#BF4FBD;}
	.st1{fill:#760071;}
	.st2{fill:#FFFEF9;}
</style>
<g>
	<g>
		<path class="st0" d="M37.5,0h-26C5.1,0,0,5.1,0,11.5v27C0,44.9,5.1,50,11.5,50h27C44.9,50,50,44.9,50,38.5V13.3H37.5V0z"/>
		<path class="st1" d="M38.5,0h-1v13.3H50v-1.8C50,5.1,44.9,0,38.5,0z"/>
	</g>
	<g>
		<g>
			<path class="st2" d="M9.2,20.2H12l3.5,9.8h-2.7l-0.5-1.5H8.9L8.4,30H5.7L9.2,20.2z M11.8,26.7l-1.3-4.2l-1.2,4.2H11.8z"/>
			<path class="st2" d="M19.9,22.1h-3.7l0.2-1.9h7.2L19.5,28h3.9L23.1,30h-7.4L19.9,22.1z"/>
			<path class="st2" d="M26.5,20.2l1.5,6.2l1.3-6.2h2.2l1.3,6.2l1.5-6.2h2.7L34.5,30h-2.9l-1.1-4.6L29.3,30h-2.9l-2.6-9.7H26.5z"/>
			<path class="st2" d="M37.5,27.6c0.3,0.2,0.7,0.3,1.1,0.4c0.4,0.1,0.8,0.2,1.2,0.2c1.2,0,1.9-0.4,1.9-1.1c0-0.4-0.1-0.6-0.4-0.8
				c-0.2-0.2-0.6-0.3-1-0.4c-0.2,0-0.4-0.1-0.6-0.1l-1-0.1V24l1-0.1c0.4-0.1,0.7-0.1,1-0.2c0.3-0.1,0.6-0.3,0.7-0.5
				c0.1-0.1,0.1-0.3,0.1-0.4c0-0.6-0.5-0.9-1.6-0.8c-0.8,0.1-1.3,0.2-1.7,0.4l0.1-0.9l0.1-1.2c0.6-0.2,1.2-0.3,2-0.3
				c1,0,1.8,0.2,2.5,0.7s0.9,1,0.9,1.7c0,1.1-0.6,1.8-1.9,2.2v0c0.7,0.1,1.2,0.4,1.6,0.8c0.4,0.4,0.6,0.9,0.6,1.6
				c0,0.9-0.4,1.6-1.1,2.1c-0.8,0.5-1.8,0.8-3,0.8c-1,0-1.9-0.2-2.6-0.5L37.5,27.6z"/>
		</g>
	</g>
</g>
</svg>
