<?xml version="1.0" encoding="utf-8"?>
<!-- Generator: Adobe Illustrator 23.0.1, SVG Export Plug-In . SVG Version: 6.00 Build 0)  -->
<svg version="1.1" id="Layer_1" xmlns="http://www.w3.org/2000/svg" xmlns:xlink="http://www.w3.org/1999/xlink" x="0px" y="0px"
	 viewBox="0 0 256 256" style="enable-background:new 0 0 256 256;" xml:space="preserve">
<style type="text/css">
	.st0{fill:#EFEFEF;}
	.st1{fill:#E2E2E2;}
	.st2{fill:url(#SVGID_1_);}
	.st3{fill:url(#SVGID_2_);}
	.st4{fill:url(#SVGID_3_);}
</style>
<g>
	<g>
		<g>
			<g>
				<g>
					<path class="st0" d="M192.2,0.6H58.9C26.4,0.6,0,26.9,0,59.5v138.2c0,32.5,26.4,58.9,58.9,58.9h138.2
						c32.5,0,58.9-26.4,58.9-58.9V68.5h-63.8V0.6z"/>
					<path class="st1" d="M197.1,0.6h-5v67.9H256v-9C256,26.9,229.6,0.6,197.1,0.6z"/>
				</g>
			</g>
		</g>
	</g>
	<g>
		<g>
			<linearGradient id="SVGID_1_" gradientUnits="userSpaceOnUse" x1="128.0023" y1="182.2952" x2="128.0023" y2="74.8648">
				<stop  offset="0" style="stop-color:#3892D8"/>
				<stop  offset="1" style="stop-color:#27BFFB"/>
			</linearGradient>
			<path class="st2" d="M112.6,182.3c-5.4,0-8.8-5.1-7-10.5c2.8-8.5,5.6-16.9,8.4-25.4c7.3-21.9,14.6-43.8,21.9-65.7
				c1.5-4.4,5.4-6.7,9.5-5.5c4.4,1.2,6.6,5.6,5.1,10.3c-2.8,8.5-5.6,16.9-8.5,25.4c-7.2,21.7-14.4,43.4-21.7,65
				C118.9,180.2,116.4,182.3,112.6,182.3z"/>
			<linearGradient id="SVGID_2_" gradientUnits="userSpaceOnUse" x1="74.2808" y1="166.9851" x2="74.2808" y2="90.1253">
				<stop  offset="0" style="stop-color:#3892D8"/>
				<stop  offset="1" style="stop-color:#27BFFB"/>
			</linearGradient>
			<path class="st3" d="M69.8,128.6c0.6,0.6,1,1.1,1.5,1.5c7.8,7.8,15.5,15.5,23.3,23.3c3.3,3.3,3.6,7.6,0.9,10.8
				c-2.9,3.5-7.9,3.7-11.3,0.5c-3-2.9-5.9-5.8-8.8-8.8c-7-7-14.1-14.1-21.1-21.1c-4.1-4.1-4.1-8.3,0-12.4
				c9.8-9.8,19.7-19.7,29.5-29.5c3.1-3,6.7-3.6,9.9-1.7c4,2.5,4.9,7.9,1.8,11.5c-1.2,1.5-2.7,2.8-4,4.1
				C84.3,114.1,77.1,121.2,69.8,128.6z"/>
			<linearGradient id="SVGID_3_" gradientUnits="userSpaceOnUse" x1="181.6917" y1="166.9986" x2="181.6917" y2="90.1362">
				<stop  offset="0" style="stop-color:#3892D8"/>
				<stop  offset="1" style="stop-color:#27BFFB"/>
			</linearGradient>
			<path class="st4" d="M186.1,128.6c-0.5-0.5-0.9-1-1.4-1.5c-7.8-7.8-15.6-15.6-23.4-23.4c-2.1-2.1-3.2-4.5-2.5-7.5
				c1.3-5.8,8-8.1,12.5-4.1c1.7,1.5,3.3,3.2,4.9,4.8c8.4,8.4,16.9,16.9,25.3,25.3c4.3,4.3,4.4,8.5,0,12.8
				c-9.8,9.8-19.6,19.6-29.4,29.4c-3.3,3.2-7.7,3.5-10.8,0.7c-3.3-2.9-3.6-7.8-0.5-11.1c1.9-2.1,4-4,6-6c6.3-6.3,12.6-12.6,18.9-19
				C185.8,129,185.9,128.9,186.1,128.6z"/>
		</g>
	</g>
</g>
</svg>
