<?xml version="1.0" encoding="utf-8"?>
<!-- Generator: Adobe Illustrator 23.0.1, SVG Export Plug-In . SVG Version: 6.00 Build 0)  -->
<svg version="1.1" id="Layer_1" xmlns="http://www.w3.org/2000/svg" xmlns:xlink="http://www.w3.org/1999/xlink" x="0px" y="0px"
	 viewBox="0 0 256 256" style="enable-background:new 0 0 256 256;" xml:space="preserve">
<style type="text/css">
	.st0{fill:#EFEFEF;}
	.st1{fill:#E2E2E2;}
	.st2{fill:#00C2FF;}
	.st3{fill:#80D9BF;}
	.st4{fill:#8BE06E;}
	.st5{fill:#9AF47D;}
	.st6{fill:#FFEF81;}
</style>
<g>
	<g>
		<g>
			<path class="st0" d="M192.6,0.5H59.4C26.8,0.5,0.5,26.8,0.5,59.4v138.2c0,32.5,26.4,58.9,58.9,58.9h138.2
				c32.5,0,58.9-26.4,58.9-58.9V68.4h-63.8V0.5z"/>
			<path class="st1" d="M197.6,0.5h-5v67.9h63.8v-9C256.5,26.8,230.1,0.5,197.6,0.5z"/>
		</g>
	</g>
</g>
<g>
	<path class="st2" d="M189.2,184.8H67.7c-5.8,0-10.5-5.8-10.5-13V85.2c0-7.2,4.7-13,10.5-13h121.5c5.8,0,10.5,5.8,10.5,13v86.6
		C199.7,179,195,184.8,189.2,184.8z"/>
	<path class="st3" d="M169.4,80.7c10.8,0,19.5,8.7,19.5,19.5c0,10.8-8.7,19.5-19.5,19.5c-10.8,0-19.5-8.7-19.5-19.5
		C149.9,89.4,158.6,80.7,169.4,80.7z"/>
	<path class="st4" d="M93.6,121.8c-2.7-2.8-7.2-2.8-9.9,0L57.2,149v25.1c0,5.9,4.7,10.8,10.5,10.8h87.4L93.6,121.8z"/>
	<path class="st5" d="M187.2,184.8c5.9,0,10.9-2.9,12.5-6.9l-49.9-37c-3.4-2.5-8.9-2.5-12.3,0l-59.3,43.9L187.2,184.8L187.2,184.8z"
		/>
	<path class="st6" d="M169.4,89.4c6,0,10.8,4.8,10.8,10.8c0,6-4.8,10.8-10.8,10.8c-6,0-10.8-4.8-10.8-10.8
		C158.6,94.2,163.4,89.4,169.4,89.4z"/>
</g>
</svg>
