<?xml version="1.0" encoding="utf-8"?>
<!-- Generator: Adobe Illustrator 23.0.1, SVG Export Plug-In . SVG Version: 6.00 Build 0)  -->
<svg version="1.1" id="Layer_1" xmlns="http://www.w3.org/2000/svg" xmlns:xlink="http://www.w3.org/1999/xlink" x="0px" y="0px"
	 viewBox="0 0 50 50" style="enable-background:new 0 0 50 50;" xml:space="preserve">
<style type="text/css">
	.st0{fill:#2E3192;}
	.st1{fill:#3C43A5;}
	.st2{fill:#FFFEF9;}
</style>
<g>
	<g>
		<path class="st0" d="M37.5,0h-26C5.1,0,0,5.1,0,11.5v27C0,44.9,5.1,50,11.5,50h27C44.9,50,50,44.9,50,38.5V13.3H37.5V0z"/>
		<path class="st1" d="M38.5,0h-1v13.3H50v-1.8C50,5.1,44.9,0,38.5,0z"/>
	</g>
	<g>
		<g>
			<path class="st2" d="M8.1,21.2h2.2l0,0.1c0,0,0,0.1,0,0.1c0.1,0.3,0.2,0.4,0.2,0.4c0,0,0,0,0.1,0c0.1-0.1,0.2-0.1,0.4-0.2
				c0.2-0.1,0.4-0.2,0.6-0.2c0.2-0.1,0.5-0.1,0.8-0.2c0.1,0,0.3,0,0.5,0h0.1c0.1,0,0.1,0,0.1,0c0.8,0,1.4,0.2,1.8,0.6c0,0,0,0,0,0
				c1.1-0.4,2-0.6,2.8-0.6c1.6,0,2.5,0.4,2.9,1.2c0.2,0.3,0.3,1.2,0.3,2.5V30h-2.7v-5.6c0-0.5-0.3-0.9-0.7-1c-0.1,0-0.2,0-0.4,0
				c-0.4,0-0.9,0.1-1.3,0.4V30h-2.7v-5.6c0-0.5-0.3-0.9-0.8-1c-0.1,0-0.3,0-0.4,0c-0.1,0-0.1,0-0.1,0c-0.5,0.1-0.9,0.2-1.1,0.4h0V30
				H8.1V21.2z"/>
			<path class="st2" d="M21.9,24.6c0-1.7,0.7-2.8,2.2-3.3c0.6-0.2,1.1-0.2,1.6-0.2h0.3c1.8,0,3,0.7,3.5,2.1c0.1,0.4,0.2,1,0.2,1.6
				v1.6c0,1.7-0.6,2.8-1.8,3.3c-0.6,0.2-1.3,0.4-2.1,0.4c-1.8,0-2.9-0.6-3.5-1.7c-0.2-0.5-0.4-1.1-0.4-1.8V24.6z M25.7,27.8
				L25.7,27.8c0.7,0,1.1-0.3,1.2-0.8c0-0.1,0-0.2,0-0.2c0-0.1,0-0.2,0-0.3v-1.8c0-0.7-0.2-1.1-0.6-1.2c-0.1-0.1-0.3-0.1-0.5-0.1
				h-0.2c-0.5,0-0.8,0.2-1,0.6c-0.1,0.2-0.1,0.3-0.1,0.6v2.2C24.5,27.5,24.9,27.8,25.7,27.8z"/>
			<path class="st2" d="M30.4,17.7l2.7-0.5v4.2c0.7-0.2,1.3-0.3,1.9-0.3c1.5,0,2.5,0.4,2.9,1.2c0.2,0.3,0.3,1.2,0.3,2.5v0.9
				c0,1.4-0.1,2.3-0.3,2.6c-0.1,0.2-0.3,0.5-0.6,0.8c-0.7,0.6-1.8,0.9-3.3,0.9c-1.1,0-2.3-0.1-3.6-0.4V17.7z M33.9,27.9h0.2
				c0.8,0,1.2-0.3,1.4-0.7c0-0.1,0.1-0.3,0.1-0.5v-2.2c0-0.5-0.3-0.9-0.8-1h-0.4c-0.4,0-0.9,0.1-1.3,0.4v4.1L33.9,27.9z"/>
			<path class="st2" d="M39.5,18.1c0.2-0.2,0.6-0.3,1.1-0.3c0.5,0,0.9,0.1,1.1,0.3c0.2,0.2,0.3,0.5,0.3,1c0,0.5-0.1,0.8-0.3,1
				c-0.2,0.2-0.5,0.3-1.1,0.3c-0.5,0-0.9-0.1-1.1-0.3c-0.2-0.2-0.3-0.5-0.3-1C39.2,18.6,39.3,18.3,39.5,18.1z M42,30v-8.7h-2.7V30
				H42z"/>
		</g>
	</g>
</g>
</svg>
