<?xml version="1.0" encoding="utf-8"?>
<!-- Generator: Adobe Illustrator 23.0.1, SVG Export Plug-In . SVG Version: 6.00 Build 0)  -->
<svg version="1.1" id="Layer_1" xmlns="http://www.w3.org/2000/svg" xmlns:xlink="http://www.w3.org/1999/xlink" x="0px" y="0px"
	 viewBox="0 0 56 50" style="enable-background:new 0 0 56 50;" xml:space="preserve">
<style type="text/css">
	.st0{fill:#C8421D;}
	.st1{fill:#FF8F6A;}
	.st2{fill:#ED6B47;}
	.st3{fill:#FFFFFF;}
	.st4{opacity:0.2;enable-background:new    ;}
</style>
<g>
	<path class="st0" d="M30.7,50c13.8,0,25-11.2,25-25h-50C5.7,38.8,16.9,50,30.7,50z"/>
	<path class="st1" d="M30.7,0v25h25C55.7,11.2,44.5,0,30.7,0z"/>
	<path class="st2" d="M5.7,25h25V0C16.9,0,5.7,11.2,5.7,25z"/>
	<path class="st0" d="M25.9,38.9H3.1c-1.5,0-2.8-1.3-2.8-2.8V13.6c0-1.5,1.3-2.8,2.8-2.8h22.8c1.5,0,2.8,1.3,2.8,2.8v22.5
		C28.7,37.6,27.4,38.9,25.9,38.9z"/>
	<g>
		<path class="st3" d="M12.6,26.9v5.9H9.2V16.5h6.6c1.9,0,3.4,0.5,4.5,1.4c1.1,0.9,1.6,2.2,1.6,3.8c0,1.6-0.6,2.8-1.6,3.7
			c-1.1,0.9-2.6,1.4-4.5,1.4H12.6z M12.6,24.4h3.3c0.9,0,1.6-0.3,2.1-0.7c0.5-0.5,0.7-1.1,0.7-1.9c0-0.8-0.2-1.4-0.7-1.9
			c-0.5-0.5-1.2-0.8-2.1-0.8h-3.3L12.6,24.4L12.6,24.4z"/>
	</g>
	<path class="st4" d="M28.6,13.4c0,0.1,0,0.2,0,0.3v22.5c0,1.5-1.3,2.8-2.8,2.8H10l1.6,2.5h16.5c1.5,0,2.8-1.3,2.8-2.8V16.1
		C30.9,14.7,29.9,13.5,28.6,13.4z"/>
</g>
</svg>
